<svg xmlns="http://www.w3.org/2000/svg" viewBox="0 0 587.97 208.51"><defs><style>.cls-1,.cls-2{fill:#333;}.cls-2{font-size:34.9px;font-family:CenturySchoolbook-Bold, Century Schoolbook;font-weight:700;}</style></defs><title>Asset 1</title><g id="Layer_2" data-name="Layer 2"><g id="Layer_1-2" data-name="Layer 1"><path class="cls-1" d="M31,80h2.53a1.49,1.49,0,0,1,1.32.65,9.49,9.49,0,0,1,.63,3.53l1.13,15.69c0,.33,0,.64,0,.93a3.73,3.73,0,0,1-.58,2.39,3.06,3.06,0,0,1-2.34.68,3.46,3.46,0,0,1-3-1.12c-.56-.75-1.09-2.52-1.61-5.31q-2-10.62-5.7-10.62-3.07,0-3.07,7.65v54.8q0,5.46,3.22,5.46,4.1,0,4.58-9.11a6.24,6.24,0,0,1,1-3.66c.58-.67,1.79-1,3.61-1a4.15,4.15,0,0,1,2.84.76,4,4,0,0,1,.81,2.95,16.56,16.56,0,0,1-4.19,11.57,13.55,13.55,0,0,1-10.43,4.6A16,16,0,0,1,11.25,157q-4.58-3.86-7.91-13.27T0,119.58q0-13.89,2.8-22.19T10,84.55A13.76,13.76,0,0,1,20.12,80a10,10,0,0,1,6.09,1.89,3.05,3.05,0,0,0,1.46.69c.39,0,.94-.46,1.66-1.36S30.51,80,31,80Z"/><path class="cls-1" d="M61.63,125.37v24.17a8.08,8.08,0,0,0,.21,2.29,2.84,2.84,0,0,0,1.22,1.22,3,3,0,0,1,1.29,2.77c0,1.89-.16,3.05-.51,3.48A2.24,2.24,0,0,1,62,160H41.4c-1.16,0-1.75-.84-1.75-2.53a19.73,19.73,0,0,1,.15-3.14,1.34,1.34,0,0,1,1-1,4.11,4.11,0,0,0,2.68-4.2V92c0-2.11-.77-3.39-2.34-3.85a3.19,3.19,0,0,1-1.46-.77,5.08,5.08,0,0,1-.29-2.27c0-2.52.68-3.78,2-3.78H68.35a20.23,20.23,0,0,1,14.35,6q6.3,6,6.3,16.23,0,14.46-14.76,18.9,13.5,3,13.5,17.1v11.59a2.45,2.45,0,0,0,1.12,2.2,3,3,0,0,1,1.31,2.67,9,9,0,0,1-.34,3.37c-.22.36-.83.53-1.8.53H75c-1.56,0-2.85-.88-3.85-2.65a13.06,13.06,0,0,1-1.51-6.55V131.12c0-3.83-1.94-5.75-5.8-5.75Zm0-38.48v32.83h3.16q4.83,0,4.83-9.69V94.34q0-4.09-1.54-5.77a6.19,6.19,0,0,0-4.8-1.68Z"/><path class="cls-1" d="M118.77,80a17.77,17.77,0,0,1,12.41,4.8q5.22,4.79,8.54,13.66T143,121.23q0,16.67-6.45,28.14t-18.2,11.47q-11.16,0-17.58-11.2T94.37,120.7q0-18.18,6.6-29.43T118.77,80Zm3.85,11.54q0-6.09-3.94-6.09A3.49,3.49,0,0,0,115.85,87a5.89,5.89,0,0,0-1.17,3.71v58.8a7.32,7.32,0,0,0,1.17,4.5,3.4,3.4,0,0,0,2.78,1.54,3.3,3.3,0,0,0,2.89-1.71,6.78,6.78,0,0,0,1.1-3.8Z"/><path class="cls-1" d="M178.1,104.36l-2.28-12.65a6.5,6.5,0,0,0-1.9-3.46,3,3,0,0,1-1.07-2V82.79a1.27,1.27,0,0,1,1.41-1.46h19.93c.65,0,1.06.16,1.24.49A5.49,5.49,0,0,1,195.7,84a9.75,9.75,0,0,1-.27,3.1,3,3,0,0,1-1.23,1c-1,.52-1.46,1-1.46,1.56a16.51,16.51,0,0,0,.4,3l5.6,31.41,5.82-32.43c0-.33.05-.67.05-1a3.7,3.7,0,0,0-2.48-3.41c-.85-.39-1.29-1.5-1.32-3.32a7.53,7.53,0,0,0-.05-1V82.5c0-.78.59-1.17,1.75-1.17h11.17a2,2,0,0,1,1.5.41,3.09,3.09,0,0,1,.34,1.79,8.44,8.44,0,0,1,0,.87l-.15,1.9a3.11,3.11,0,0,1-1.56,2,4.24,4.24,0,0,0-1.75,3l-11.75,64.31a19,19,0,0,1-1.12,4.53,1.7,1.7,0,0,1-1.6.73h-8.19c-.87,0-1.43-.93-1.65-2.78,0-.35-.07-.63-.1-.83l-6.18-34.37-6.14,35a6.67,6.67,0,0,1-.74,2.56,1.57,1.57,0,0,1-1.26.46h-8.53q-1.45,0-2.09-5.11c-.07-.62-.13-1.09-.2-1.42l-11.64-63a4.06,4.06,0,0,0-2.05-2.92,2.31,2.31,0,0,1-1.36-2.15V82.45c0-.74.45-1.12,1.36-1.12h19.29a1.63,1.63,0,0,1,1.37.51,4.51,4.51,0,0,1,.39,2.36,13.45,13.45,0,0,1-.15,2.64,2.7,2.7,0,0,1-.91,1.21,2.67,2.67,0,0,0-1,1.9,15.89,15.89,0,0,0,.29,2.78l6.18,32.89Z"/><path class="cls-1" d="M229.94,115.38v34.4c0,1.43.82,2.5,2.44,3.22a2.88,2.88,0,0,1,2.05,2.62,21.8,21.8,0,0,1-.17,3.95c-.12.27-.59.39-1.44.39H219.91a1.12,1.12,0,0,1-1.22-.75,16.76,16.76,0,0,1-.24-3.73,1.91,1.91,0,0,1,1.3-1.9c1.66-.75,2.5-1.59,2.5-2.53V93.46a9.56,9.56,0,0,0-.39-3.14,3.27,3.27,0,0,0-1.73-1.73,3.66,3.66,0,0,1-1.61-1.27,5.43,5.43,0,0,1-.41-2.58c0-2.27.59-3.41,1.79-3.41h13.48l16.4,38v-28A3.4,3.4,0,0,0,247.39,88a3.62,3.62,0,0,1-1.83-1.44,7.81,7.81,0,0,1-.41-3.14,3.14,3.14,0,0,1,.29-1.78,1.51,1.51,0,0,1,1.12-.32H260c.75.1,1.12,1.17,1.12,3.22a7.48,7.48,0,0,1-.21,2.29,1.87,1.87,0,0,1-1,.83A5,5,0,0,0,257.76,89a3.08,3.08,0,0,0-.43,1.76V160H249Z"/><path class="cls-1" d="M347.83,126.22v25a8,8,0,0,0,.23,2.37,2.86,2.86,0,0,0,1.26,1.26,3.13,3.13,0,0,1,1.33,2.87c0,1.94-.17,3.14-.52,3.59a2.33,2.33,0,0,1-1.94.68H326.94c-1.21,0-1.81-.87-1.81-2.61a21,21,0,0,1,.15-3.25,1.38,1.38,0,0,1,1-1,4.25,4.25,0,0,0,2.76-4.34v-59c0-2.19-.8-3.51-2.41-4a3.38,3.38,0,0,1-1.51-.8,5.2,5.2,0,0,1-.3-2.35q0-3.9,2.11-3.9h27.84A20.88,20.88,0,0,1,369.61,87q6.51,6.24,6.52,16.77,0,14.94-15.25,19.53,13.94,3.07,13.94,17.67v12a2.53,2.53,0,0,0,1.15,2.27,3.1,3.1,0,0,1,1.37,2.77,9.11,9.11,0,0,1-.36,3.47c-.23.37-.85.55-1.86.55H361.63q-2.42,0-4-2.74a13.51,13.51,0,0,1-1.56-6.77V132.16c0-4-2-5.94-6-5.94Zm0-39.77v33.93h3.28q5,0,5-10V94.15q0-4.23-1.59-6c-1.05-1.16-2.71-1.74-4.95-1.74Z"/><path class="cls-1" d="M406.89,79.35a18.32,18.32,0,0,1,12.81,5q5.42,5,8.83,14.12T432,121.94q0,17.22-6.67,29.08t-18.81,11.85q-11.52,0-18.17-11.58t-6.64-29.9q0-18.78,6.82-30.41T406.89,79.35Zm4,11.93c0-4.2-1.36-6.29-4.07-6.29a3.57,3.57,0,0,0-2.92,1.56,6,6,0,0,0-1.21,3.83v60.76a7.58,7.58,0,0,0,1.21,4.66,3.54,3.54,0,0,0,2.87,1.58,3.42,3.42,0,0,0,3-1.76,7.05,7.05,0,0,0,1.13-3.93Z"/><path class="cls-1" d="M462.72,79.35a18.32,18.32,0,0,1,12.81,5q5.42,5,8.83,14.12t3.43,23.51q0,17.22-6.67,29.08t-18.81,11.85q-11.52,0-18.17-11.58t-6.64-29.9q0-18.78,6.82-30.41T462.72,79.35Zm4,11.93c0-4.2-1.36-6.29-4.07-6.29a3.57,3.57,0,0,0-2.92,1.56,6,6,0,0,0-1.21,3.83v60.76a7.58,7.58,0,0,0,1.21,4.66,3.54,3.54,0,0,0,2.87,1.58,3.42,3.42,0,0,0,3-1.76,7.05,7.05,0,0,0,1.13-3.93Z"/><path class="cls-1" d="M529.12,80.71h17.82a3.66,3.66,0,0,1,2.37.53c.37.35.55,1.25.55,2.69a7,7,0,0,1-.38,2.75,3.75,3.75,0,0,1-1.83,1.48A3.34,3.34,0,0,0,546,89.47a5.64,5.64,0,0,0-.35,2.32v59.75a4.4,4.4,0,0,0,.31,1.92,3.51,3.51,0,0,0,1.66,1.26,2.74,2.74,0,0,1,1.86,2.46,18.33,18.33,0,0,1-.25,4.36q-.26.42-1.77.42H525c-1,0-1.46-.82-1.46-2.46a24,24,0,0,1,.15-3.15c.1-.69.72-1.25,1.86-1.69a2.69,2.69,0,0,0,1.92-2.67V109.61l-9.06,34.23h-5.54L504,110.66v41.18a3.15,3.15,0,0,0,1.81,3,4,4,0,0,1,2.21,3.92c0,2.15-.74,3.22-2.21,3.22H494.83c-1.24,0-1.86-1-1.86-3.07a3.88,3.88,0,0,1,1.56-3.32A6,6,0,0,0,496,154a4.82,4.82,0,0,0,.3-2V93.85a12.5,12.5,0,0,0-.42-3.7A3.82,3.82,0,0,0,494,88.06c-1-.53-1.51-1.09-1.51-1.66l.05-2.17a9.19,9.19,0,0,1,.33-2.94c.18-.39.62-.58,1.33-.58h18.63l8,31.11Z"/><path class="cls-1" d="M575.79,82.87a19,19,0,0,0,1.71-2.26,2.81,2.81,0,0,1,2.42-1.31c.23,0,1.17.12,2.81.35a4,4,0,0,1,.76,2.12l2.72,17.06c.13.91.2,1.45.2,1.62a1.32,1.32,0,0,1-.53,1.25,7.46,7.46,0,0,1-2.79.3c-1.71,0-2.82-.21-3.32-.65s-1.47-2.25-2.87-5.44q-4.49-10.11-8-10.12-2.52,0-2.52,3.53,0,4.38,7.61,17.22,8.7,14.79,11.35,21.42A39.68,39.68,0,0,1,588,142.78q0,9.72-4.58,14.91t-10.32,5.18a13.28,13.28,0,0,1-7-2.06A4.37,4.37,0,0,0,564,160c-.44,0-.79.32-1.06,1-.54,1.27-1.85,1.91-3.93,1.91a2.55,2.55,0,0,1-1.63-.38,3.42,3.42,0,0,1-.63-2l-2.52-16.77c-.34-2.15-.5-3.29-.5-3.42,0-1,.88-1.46,2.67-1.46,2.41,0,3.84.32,4.28.95a24.21,24.21,0,0,1,1.86,4.38q4.43,12.24,8.91,12.24a3.4,3.4,0,0,0,2.69-1.21,4.48,4.48,0,0,0,1-3,16.72,16.72,0,0,0-2.29-7.53c-1.52-2.9-3.4-6.13-5.61-9.69A168.31,168.31,0,0,1,556,114.57,38.92,38.92,0,0,1,552.73,99q0-9,3.93-14.29t9.61-5.34Q570.2,79.35,575.79,82.87Z"/><text class="cls-2" transform="translate(326.97 200.53)">NEWMARKET</text><path class="cls-1" d="M260,13.12,264.07,15a16,16,0,0,0-1.9,4.72c-.54,2.55.2,3.54.2,3.54S255,23.55,260,13.12Z"/><path class="cls-1" d="M260.59,11.94a9.89,9.89,0,0,0-2.1-4.32c1.38.39,4.46,1,6.17,6.35C262.37,12.73,260.59,11.94,260.59,11.94Z"/><path class="cls-1" d="M276.06,11.41a7.77,7.77,0,0,0-3.21-5.3,6.05,6.05,0,0,1,.46,3.4c-.28,1.2-1.37,2.08-1.51,3.41a6,6,0,0,0,4.07,6.1C273,15.81,276.21,14.48,276.06,11.41Z"/><path class="cls-1" d="M270.2,13.25a2.76,2.76,0,0,1,1-1.57,2.6,2.6,0,0,1-2.15.22,2.73,2.73,0,0,1-1.7-3.5,2.7,2.7,0,0,1,5.27,1.07c.53-1.86-.3-4.25-2.23-4.45-1.57-.23-4.16.92-4.88,4.4A3.69,3.69,0,0,0,268.1,14c1,.27,1.47,1.42,2,1.28S270.07,14,270.2,13.25Z"/><path class="cls-1" d="M323.52,13.12,319.46,15a16.34,16.34,0,0,1,1.9,4.72c.53,2.55-.2,3.54-.2,3.54S328.57,23.55,323.52,13.12Z"/><path class="cls-1" d="M322.93,11.94A9.89,9.89,0,0,1,325,7.62c-1.38.39-4.46,1-6.16,6.35C321.16,12.73,322.93,11.94,322.93,11.94Z"/><path class="cls-1" d="M307.46,11.41a7.77,7.77,0,0,1,3.21-5.3,6.05,6.05,0,0,0-.46,3.4c.29,1.2,1.37,2.08,1.51,3.41a6,6,0,0,1-4.06,6.1C310.54,15.81,307.31,14.48,307.46,11.41Z"/><path class="cls-1" d="M313.33,13.25a2.83,2.83,0,0,0-1-1.57,2.62,2.62,0,0,0,2.16.22,2.8,2.8,0,0,0-1.75-5.31,2.74,2.74,0,0,0-1.83,2.88c-.53-1.86.3-4.25,2.23-4.45,1.57-.23,4.16.92,4.89,4.4A3.69,3.69,0,0,1,315.43,14c-1.06.27-1.48,1.42-2,1.28S313.46,14,313.33,13.25Z"/><path class="cls-1" d="M287.5,6.1a.75.75,0,0,0,.07.12l.1.11.15.14a5.63,5.63,0,0,1,4-1.78,5.55,5.55,0,0,1,3.75,1.53l0,0a.31.31,0,0,0,.09-.11.75.75,0,0,0,.07-.12l0-.13a.66.66,0,0,0,0-.14.69.69,0,0,0,0-.13.75.75,0,0,0-.06-.13.75.75,0,0,0-.07-.12l-.11-.11-3.43-2.86a.57.57,0,0,0-.13-.08l-.13-.06-.14,0h-.29l-.13,0a.59.59,0,0,0-.14.06l-.11.09-3.4,3-.1.12a.37.37,0,0,0-.07.12.35.35,0,0,0,0,.13.69.69,0,0,0,0,.13.66.66,0,0,0,0,.14A.65.65,0,0,0,287.5,6.1Z"/><path class="cls-1" d="M285,7.31l5.12,5L289,14a.35.35,0,0,1-.4.06C288.42,13.9,284.51,10,285,7.31Z"/><path class="cls-1" d="M298.41,7.31l-5.12,5L294.36,14a.34.34,0,0,0,.39.06C295,13.9,298.87,10,298.41,7.31Z"/><rect class="cls-1" x="285.46" y="72.46" width="11.11" height="14.81"/><rect class="cls-1" x="285.46" y="88.83" width="11.11" height="2.5"/><rect class="cls-1" x="285.46" y="68.4" width="11.11" height="2.5"/><polygon class="cls-1" points="311.02 176.24 311.02 180.2 304.86 180.2 304.86 176.24 296.57 176.24 296.57 92.91 285.46 92.91 285.46 200.78 296.57 200.78 296.57 188.67 299.47 188.67 299.47 200.88 304.86 200.88 304.86 188.45 311.02 188.45 311.02 200.88 316.4 200.88 316.4 176.24 311.02 176.24"/><path class="cls-1" d="M284.21,30.9c0-1.09,3.26-2,7.28-2s7.28.88,7.28,2-3.26,2-7.28,2S284.21,32,284.21,30.9Z"/><path class="cls-1" d="M265.22,34.37C265,33.31,268,31.78,271.94,31s7.31-.62,7.53.44-2.79,2.59-6.73,3.41S265.45,35.43,265.22,34.37Z"/><path class="cls-1" d="M318.28,34.37c.22-1.06-2.79-2.59-6.72-3.41s-7.3-.62-7.53.44,2.79,2.59,6.73,3.41S318.06,35.43,318.28,34.37Z"/><path class="cls-1" d="M330.6,38.3c0-1.38-1.55-2.67-1.55-2.67a1.78,1.78,0,0,1,.08-1,6.67,6.67,0,0,0,1.1-4.19c-.39-2.37-2.88-4.74-2.8-7.39.07-2.46,1.95-4.56,2.1-5.94.48-4.55-3.45-9.36-3.45-9.36a11.74,11.74,0,0,0-2.28,4c4.29,2.8,4.11,14.68-2.71,12.23s-6.64-7.82-7.91-8.17-3.8,5.42-11.36,4c-6.47-1.24-8.07-6.23-9.36-7.62h0a.74.74,0,0,0,.19-.16l5.39-5.37a1.19,1.19,0,0,0,.15-.18,2.12,2.12,0,0,0,.11-.21,1.6,1.6,0,0,0,.05-.21.83.83,0,0,0,0-.22.78.78,0,0,0,0-.22.6.6,0,0,0-.08-.21.82.82,0,0,0-.12-.2A1.45,1.45,0,0,0,298,5L292.48.3l-.19-.13-.22-.1-.22,0a.93.93,0,0,0-.23,0l-.23,0-.22.06a.7.7,0,0,0-.21.11.62.62,0,0,0-.19.14l-5.41,4.93a1.37,1.37,0,0,0-.16.18,2.12,2.12,0,0,0-.12.2,1.87,1.87,0,0,0-.07.22.83.83,0,0,0,0,.22.55.55,0,0,0,0,.22.83.83,0,0,0,.06.21.71.71,0,0,0,.11.21,1.29,1.29,0,0,0,.16.18l5.49,5.15.21.15h0c-1.28,1.42-2.9,6.37-9.34,7.6-7.56,1.44-10.09-4.33-11.36-4s-1.1,5.73-7.91,8.17-7-9.43-2.71-12.23a11.83,11.83,0,0,0-2.27-4s-3.94,4.81-3.46,9.36c.15,1.38,2,3.48,2.1,5.94.07,2.65-2.4,5-2.8,7.39a6.67,6.67,0,0,0,1.1,4.19,1.78,1.78,0,0,1,.08,1s-1.55,1.29-1.55,2.67,1.18,2.55,1.12,4.19c-.06,1.31-.34,3.83.28,5.69.85,6.31,14,11.46,31.14,12.49v6.14h11.11V60.74c17.58-.8,31.34-5.94,32.55-12.3.74-1.89.42-4.58.37-5.95C329.42,40.85,330.6,39.67,330.6,38.3ZM291,10.11,286.94,6.4a.49.49,0,0,1-.12-.13,1,1,0,0,1-.08-.14,1.42,1.42,0,0,1-.05-.16.86.86,0,0,1,0-.16,1,1,0,0,1,0-.16.88.88,0,0,1,.05-.15l.09-.15.13-.13,4-3.56a.71.71,0,0,1,.14-.1l.15-.08.17,0,.17,0h.17l.17,0,.16.07a1.21,1.21,0,0,1,.14.1L296.35,5l.13.13a1.1,1.1,0,0,1,.09.14.76.76,0,0,1,.06.16.8.8,0,0,1,0,.15.86.86,0,0,1,0,.16.94.94,0,0,1,0,.16.64.64,0,0,1-.08.14.76.76,0,0,1-.11.14l-4,3.87a.44.44,0,0,1-.15.12.83.83,0,0,1-.16.09l-.18,0-.19,0-.18,0-.18,0-.17-.08A1,1,0,0,1,291,10.11ZM256.75,25.84s2.71,6.29,6.9,4.81S270,20,270.82,19.72s5.51,7.87,11,7.34a11.83,11.83,0,0,0,9.92-7.88,11.83,11.83,0,0,0,9.93,7.88c5.51.53,10.14-7.6,11-7.34s3,9.44,7.17,10.93,6.91-4.81,6.91-4.81c1.09,1.77.61,7-.44,7.54-.61.34-5.37-2.51-13.06-4.45h0l-.2-.05a56,56,0,0,0-6.53-1.21,111.61,111.61,0,0,0-30.25.08c-1.3.18-2.53.4-3.72.65l-.38.07h0c-8.85,1.89-14.37,5.27-15,4.9C256.14,32.79,255.65,27.61,256.75,25.84Zm35,28.09c-13.49,0-24.43-2.87-24.43-6.4s10.94-6.41,24.43-6.41,24.43,2.87,24.43,6.41S305.23,53.93,291.74,53.93Zm35-12.88c-1.14.2-5.26-2.42-13.21-4.37a90.22,90.22,0,0,0-21.78-2.48A88.44,88.44,0,0,0,268.85,37c-7.2,1.91-11,4.26-12.06,4.07-1.9-.33-2.23-4.2-.59-5.38,1.11-.8,6.68-4.23,17-6.31a101.14,101.14,0,0,1,18.42-1.59,95.24,95.24,0,0,1,21.24,2.16c8.69,2.09,13.42,5,14.43,5.74C329,36.85,328.63,40.72,326.73,41.05Z"/></g></g></svg>